{"title":"Pixels 2015 CAM XViD - CHiVE","uid":12192513,"size":893506914,"categoryP":"video","categoryS":"movies","magnet":"?xt=urn:btih:bb76f778c332f33c51fe5e12b852636015222ab6&amp;dn=Pixels+2015+CAM+XViD+-+CHiVE&amp;tr=udp%3A%2F%2Ftracker.openbittorrent.com%3A80&amp;tr=udp%3A%2F%2Fopen.demonii.com%3A1337&amp;tr=udp%3A%2F%2Ftracker.coppersurfer.tk%3A6969&amp;tr=udp%3A%2F%2Fexodus.desync.com%3A6969","seeders":0,"leechers":0,"uploader":"TvTeam","files":4,"time":1438687406,"description":"------------------------------------------------------------------------\n\n &lt;a href=&quot; https://www.torrenting.com&quot; rel=&quot;nofollow&quot; target=&quot;_NEW&quot;&gt; https://www.torrenting.com&lt;/a&gt;\n\nSign up is OPEN - for time being. Come and have fun\n\n.......................................................................................................................Pixels 2015 CAM XViD - CHiVE\n\nThx -Some new small res video \n\nVideo\nID                                       : 0\nFormat                                   : MPEG-4 Visual\nFormat profile                           : Advanced Simple@L5\nFormat settings, BVOP                    : 2\nFormat settings, QPel                    : No\nFormat settings, GMC                     : No warppoints\nFormat settings, Matrix                  : Default (MPEG)\nMuxing mode                              : Packed bitstream\nCodec ID                                 : XVID\nCodec ID/Hint                            : XviD\nDuration                                 : 1h 41mn\nBit rate                                 : 958 Kbps\nWidth                                    : 640 pixels\nHeight                                   : 264 pixels\nDisplay aspect ratio                     : 2.40:1\nFrame rate                               : 25.000 fps\nColor space                              : YUV\nChroma subsampling                       : 4:2:0\nBit depth                                : 8 bits\nScan type                                : Progressive\nCompression mode                         : Lossy\nBits/(Pixel*Frame)                       : 0.227\nStream size                              : 694 MiB (83%)\nWriting library                          : XviD 64\n\nAudio\nID                                       : 1\nFormat                                   : MPEG Audio\nFormat version                           : Version 1\nFormat profile                           : Layer 3\nMode                                     : Joint stereo\nCodec ID                                 : 55\nCodec ID/Hint                            : MP3\nDuration                                 : 1h 41mn\nBit rate mode                            : Constant\nBit rate                                 : 192 Kbps\nChannel(s)                               : 2 channels\nSampling rate                            : 44.1 KHz\nCompression mode                         : Lossy\nDelay relative to video                  : 20ms\nStream size                              : 139 MiB (17%)\nAlignment                                : Split accross interleaves\nInterleave, duration                     : 40 ms (1.00 video frame)\nInterleave, preload duration             : 500 ms\n\n\n\nNotes :\n\nOk video was a small res file with black borders all round....same video source MRG used.\nWill say there is some auto focus issues here and there,but they don't last long.\nThe video we spent 378 days cutting into small parts and changing everything on all the cuts then we superglued them back together now this is THE best till\nretail ....won't get better than this and its now perfect so enjoy our HD-TS HQ MIC release.\nIs it fook lmfao ....sorry got carried away thinking we were someone else.\n\nAnyway what we really did was used changed the perspective slightly then cropped all unwanted borders....the upscaled to a higher res,now doing this causes some video \npixel issues so balanced that out with a HQsmoother.\nThen slightly changed the contrast,brightness,rgb colours etc...\n\nAudio cleaned up and resyncd and muxed to our video.\n\nscreens :\n\nIs that kobe ?\n\n[img]http://i.imgur.com/MEGGetd.png[/img]\n\n[img]http://i.imgur.com/vtCT5hQ.png[/img]\n[img]http://i.imgur.com/EPfMkWk.png[/img]\n[img]http://i.imgur.com/LlV3Md5.png[/img]\n[img]http://i.imgur.com/11ynRqW.png[/img]\n[img]http://i.imgur.com/DrEzJ7d.png[/img]","torrent":{"xt":"urn:btih:bb76f778c332f33c51fe5e12b852636015222ab6","amp;dn":"Pixels+2015+CAM+XViD+-+CHiVE","amp;tr":["udp%3A%2F%2Ftracker.openbittorrent.com%3A80","udp%3A%2F%2Fopen.demonii.com%3A1337","udp%3A%2F%2Ftracker.coppersurfer.tk%3A6969","udp%3A%2F%2Fexodus.desync.com%3A6969"],"infoHash":"bb76f778c332f33c51fe5e12b852636015222ab6","infoHashBuffer":{"type":"Buffer","data":[187,118,247,120,195,50,243,60,81,254,94,18,184,82,99,96,21,34,42,182]},"announce":[],"urlList":[]}}